<svg t="1655653828707" class="icon" viewBox="0 0 1024 1024" version="1.1" xmlns="http://www.w3.org/2000/svg" p-id="2025" width="200" height="200"><path d="M102.06 424.4c20.53 0 37.18-16.67 37.18-37.19V199.78c0-33.37 27.3-60.52 60.83-60.52h181.37c20.53 0 37.18-16.67 37.18-37.19s-16.65-37.19-37.18-37.19H200.07c-74.55 0-135.19 60.52-135.19 134.91v187.43c0 20.51 16.65 37.18 37.18 37.18zM823.93 64.86H642.56c-20.53 0-37.18 16.67-37.18 37.19s16.65 37.19 37.18 37.19h181.37c33.54 0 60.83 27.15 60.83 60.52v187.43c0 20.53 16.65 37.19 37.18 37.19s37.18-16.67 37.18-37.19V199.78c0-74.39-60.63-134.92-135.19-134.92zM381.44 884.75H200.07c-33.54 0-60.83-27.15-60.83-60.52V636.79c0-20.53-16.65-37.19-37.18-37.19s-37.18 16.67-37.18 37.19v187.43c0 74.39 60.63 134.91 135.19 134.91h181.37c20.53 0 37.18-16.67 37.18-37.19s-16.66-37.19-37.18-37.19zM921.94 599.6c-20.53 0-37.18 16.67-37.18 37.19v187.43c0 33.37-27.3 60.52-60.83 60.52H642.56c-20.53 0-37.18 16.67-37.18 37.19s16.65 37.19 37.18 37.19h181.37c74.55 0 135.19-60.52 135.19-134.91V636.79c0-20.52-16.65-37.19-37.18-37.19zM244.69 512c0 20.53 16.65 37.19 37.18 37.19h460.27c20.53 0 37.18-16.67 37.18-37.19 0-20.53-16.65-37.19-37.18-37.19H281.86c-20.52 0-37.17 16.66-37.17 37.19z" p-id="2026"></path></svg>